<svg xmlns="http://www.w3.org/2000/svg" xmlns:xlink="http://www.w3.org/1999/xlink" width="512" zoomAndPan="magnify" viewBox="0 0 384 383.999986" height="512" preserveAspectRatio="xMidYMid meet" version="1.0"><defs><clipPath id="e5ab0f84a2"><path d="M 39.75 0 L 344.25 0 C 354.792969 0 364.902344 4.1875 372.359375 11.640625 C 379.8125 19.097656 384 29.207031 384 39.75 L 384 344.25 C 384 354.792969 379.8125 364.902344 372.359375 372.359375 C 364.902344 379.8125 354.792969 384 344.25 384 L 39.75 384 C 29.207031 384 19.097656 379.8125 11.640625 372.359375 C 4.1875 364.902344 0 354.792969 0 344.25 L 0 39.75 C 0 29.207031 4.1875 19.097656 11.640625 11.640625 C 19.097656 4.1875 29.207031 0 39.75 0 Z M 39.75 0 " clip-rule="nonzero"/></clipPath><clipPath id="57e2dac132"><path d="M 0 38 L 359 38 L 359 384 L 0 384 Z M 0 38 " clip-rule="nonzero"/></clipPath><clipPath id="4815fc55da"><path d="M -76.5 372.824219 L 257.925781 38.398438 L 358.933594 139.40625 L 24.507812 473.832031 Z M -76.5 372.824219 " clip-rule="nonzero"/></clipPath><clipPath id="a9b6723c16"><path d="M 254.222656 20 L 366.042969 20 L 366.042969 282.042969 L 254.222656 282.042969 Z M 254.222656 20 " clip-rule="nonzero"/></clipPath></defs><g clip-path="url(#e5ab0f84a2)"><rect x="-38.4" width="460.8" fill="#023247" y="-38.399999" height="460.799983" fill-opacity="1"/></g><g clip-path="url(#57e2dac132)"><g clip-path="url(#4815fc55da)"><path fill="#f5f9f9" d="M -76.5 372.824219 L 258.09375 38.230469 L 359.101562 139.238281 L 24.507812 473.832031 Z M -76.5 372.824219 " fill-opacity="1" fill-rule="nonzero"/></g></g><g clip-path="url(#a9b6723c16)"><path fill="#023247" d="M 254.222656 20 L 366.042969 20 L 366.042969 282.082031 L 254.222656 282.082031 Z M 254.222656 20 " fill-opacity="1" fill-rule="nonzero"/></g></svg>