<svg xmlns="http://www.w3.org/2000/svg" version="1.1" xmlns:xlink="http://www.w3.org/1999/xlink" width="512" height="512" x="0" y="0" viewBox="0 0 512 512" style="enable-background:new 0 0 512 512" xml:space="preserve" class=""><g><path fill="#2a8e9e" fill-rule="evenodd" d="M115.905 48.962h280.189c27.766 0 52.996 11.347 71.277 29.629C485.653 96.872 497 122.102 497 149.868v212.264c0 27.766-11.347 52.996-29.629 71.277-18.281 18.281-43.512 29.629-71.277 29.629H115.905c-27.766 0-52.996-11.348-71.277-29.629S15 389.898 15 362.132V149.868c0-27.766 11.347-52.996 29.629-71.277C62.91 60.309 88.14 48.962 115.905 48.962z" clip-rule="evenodd" opacity="1" data-original="#c49e6c" class=""></path><path fill="#298593" fill-rule="evenodd" d="M115.905 48.962h280.189c27.766 0 52.996 11.347 71.277 29.629C485.653 96.872 497 122.102 497 149.868v212.264c0 27.766-11.347 52.996-29.629 71.277a101.778 101.778 0 0 1-24.294 17.961 100.072 100.072 0 0 0 8.323-40.038V199.068c0-27.766-11.347-52.996-29.629-71.277-18.281-18.281-43.512-29.629-71.277-29.629H70.305a100.073 100.073 0 0 0-46.983 11.668 101.556 101.556 0 0 1 21.306-31.239C62.91 60.309 88.14 48.962 115.905 48.962z" clip-rule="evenodd" opacity="1" data-original="#b08e61" class=""></path><path fill="#57c2c2" fill-rule="evenodd" d="M497 178.6v154.801c0 8.836-7.164 16-16 16H300.075c-16.537 0-31.56-6.754-42.441-17.635-10.88-10.881-17.634-25.904-17.634-42.44v-66.651c0-16.537 6.754-31.56 17.635-42.44 10.881-10.881 25.904-17.635 42.441-17.635H481c8.836 0 16 7.163 16 16z" clip-rule="evenodd" opacity="1" data-original="#ffd266" class=""></path><path fill="#4eb8b8" fill-rule="evenodd" d="M497 178.6v154.801c0 8.836-7.164 16-16 16h-29.6V223c0-8.836-7.164-16-16-16H254.475c-4.371 0-8.636.472-12.746 1.367 2.662-10.813 8.266-20.494 15.906-28.133 10.881-10.881 25.904-17.635 42.441-17.635H481c8.836.001 16 7.164 16 16.001z" clip-rule="evenodd" opacity="1" data-original="#e6bd5c" class=""></path><path fill="#e8e8f5" fill-rule="evenodd" d="M327.101 272c-8.836 0-16-7.164-16-16 0-8.837 7.164-16 16-16h14.4c8.836 0 16 7.164 16 16s-7.164 16-16 16z" clip-rule="evenodd" opacity="1" data-original="#3e3e42" class=""></path></g></svg>