<svg xmlns="http://www.w3.org/2000/svg" version="1.1" xmlns:xlink="http://www.w3.org/1999/xlink" width="512" height="512" x="0" y="0" viewBox="0 0 512 512" style="enable-background:new 0 0 512 512" xml:space="preserve" class=""><g><path d="M511.75 305.79c.43.64.43 1.83-.97 1.83h-20c-1.62 0-2.26-.65-2.9-1.73l-21.3-38.27h-19.35c-9.57 0-13.12 2.9-13.12 9.35v30.65h-19.24c-1.73 0-2.58-.87-2.58-2.59v-95.15c0-5.06 2.79-7.32 10.21-7.32h44.95c26.12 0 41.93 6.89 41.93 32.37 0 19.67-9.46 27.42-21.18 30.43l23.55 40.43zm-24.41-70.43c0-10.64-3.01-15.91-16.67-15.91h-36.56v31.82h36.56c13.66 0 16.67-5.16 16.67-15.91zM373.53 202.56c.86 0 1.18.44.86 1.29l-5.7 14.09c-.54 1.18-1.29 1.72-2.9 1.72h-59.9V246h50c.86 0 1.18.43.86 1.29l-5.48 13.55c-.54 1.18-1.29 1.72-2.91 1.72h-29.35c-9.57 0-13.12 2.9-13.12 9.36v18.6h67.64c.86 0 1.18.43.86 1.29l-5.7 14.08c-.54 1.19-1.29 1.73-2.9 1.73h-73.87c-5.71 0-7.85-1.94-7.85-6.24v-91.51c0-5.05 2.79-7.31 10.21-7.31h79.25zM226.28 252.24c11.83 3.12 17.2 13.76 17.2 26.34 0 20.97-14.84 29.03-35.59 29.03h-55.05c-5.7 0-7.85-1.93-7.85-6.23v-91.51c0-5.05 2.8-7.31 10.22-7.31h44.73c19.56 0 38.49 3.44 38.49 26.67 0 10-3.55 18.49-12.15 23.01zm-4.84 24.3c0-9.67-3.44-14.41-15.8-14.41h-25.71c-9.57 0-13.12 2.91-13.12 9.35v19.25h38.82c12.37 0 15.81-4.51 15.81-14.19zm-5.05-43.66c0-9.06-3.23-13.44-14.84-13.44h-34.74v26.89h34.74c11.61 0 14.84-4.38 14.84-13.45zM102.79 202.56v62.47c0 32.91-20.97 44.41-51.39 44.41-30.43 0-51.4-11.51-51.4-44.41v-59.89c0-1.72.86-2.58 2.58-2.58h19.68v61.51c0 19.67 8.71 27.84 29.14 27.84s29.14-8.17 29.14-27.84v-58.93c0-1.71.85-2.58 2.58-2.58h19.67z" fill="#0a0a0a" opacity="1" data-original="#000000" class=""></path></g></svg>